<?xml version="1.0" encoding="utf-8"?>
<!-- Generator: Adobe Illustrator 18.1.1, SVG Export Plug-In . SVG Version: 6.00 Build 0)  -->
<svg version="1.1" id="Layer_1" xmlns="http://www.w3.org/2000/svg" xmlns:xlink="http://www.w3.org/1999/xlink" x="0px" y="0px"
	 viewBox="0 0 298 289.4" enable-background="new 0 0 298 289.4" xml:space="preserve">
<path fill="#010101" d="M266.8,289.6H31.7c-17.7,0-32.2-14.5-32.2-32.2V32.5C-0.5,14.8,14,0.3,31.7,0.3h235.1
	c17.7,0,32.2,14.5,32.2,32.2v224.9C299,275.1,284.5,289.6,266.8,289.6z"/>
<path fill="#FFFFFF" d="M204,76.3V42.2c0,0-72.7-15.5-79.3,39.5V120H97.1v38.7h27.7v104.4h39.8V158.2L204,158v-36.9h-39.8V94.2
	c0,0-2.8-17.4,16.6-17.8C187.9,76.2,204,76.3,204,76.3z"/>
</svg>
