<?xml version="1.0" encoding="utf-8"?>
<!-- Generator: Adobe Illustrator 18.1.1, SVG Export Plug-In . SVG Version: 6.00 Build 0)  -->
<svg version="1.1" id="Layer_1" xmlns="http://www.w3.org/2000/svg" xmlns:xlink="http://www.w3.org/1999/xlink" x="0px" y="0px"
	 viewBox="0 0 288 288" enable-background="new 0 0 288 288" xml:space="preserve">
<circle fill="#FFFFFF" cx="65.7" cy="70.6" r="22.4"/>
<polygon fill="#FFFFFF" points="45,106.5 45,237.1 88.6,237.1 88.6,105.9 "/>
<path fill="#FFFFFF" d="M112.7,106.5v131.2h43.6v-82c0,0,24.6-41.8,45.3,0.6l1.7,80.8H245v-83.7c0,0-20.1-87.1-88.8-31.5v-15.5
	H112.7z"/>
<path fill="#010101" d="M255.8,289.7H32.2C14.5,289.7,0,275.2,0,257.5V32.6C0,14.9,14.5,0.4,32.2,0.4h223.6
	c17.7,0,32.2,14.5,32.2,32.2v224.9C288,275.2,273.5,289.7,255.8,289.7z"/>
<path fill="#FFFFFF" stroke="#231F20" stroke-miterlimit="10" d="M188.8,82V47.9c0,0-70.6-15.5-77.1,39.4v38.3H84.8v38.6h26.9v104.1
	h38.7V163.6l38.4-0.2v-36.8h-38.7V99.8c0,0-2.7-17.3,16.2-17.8C173.1,81.9,188.8,82,188.8,82z"/>
</svg>
