<?xml version="1.0" encoding="utf-8"?>
<!-- Generator: Adobe Illustrator 18.1.1, SVG Export Plug-In . SVG Version: 6.00 Build 0)  -->
<svg version="1.1" id="Layer_1" xmlns="http://www.w3.org/2000/svg" xmlns:xlink="http://www.w3.org/1999/xlink" x="0px" y="0px"
	 viewBox="0 0 288 288" enable-background="new 0 0 288 288" xml:space="preserve">
<path fill="#010101" d="M255.8,289H32.2C14.5,289,0,274.6,0,256.8V31.9C0,14.2,14.5-0.3,32.2-0.3h223.6c17.7,0,32.2,14.5,32.2,32.2
	v224.9C288,274.6,273.5,289,255.8,289z"/>
<circle fill="#FFFFFF" cx="65.7" cy="70.6" r="22.4"/>
<polygon fill="#FFFFFF" points="45,106.5 45,237.1 88.6,237.1 88.6,105.9 "/>
<path fill="#FFFFFF" d="M112.7,106.5v131.2h43.6v-82c0,0,24.6-41.8,45.3,0.6l1.7,80.8H245v-83.7c0,0-20.1-87.1-88.8-31.5v-15.5
	H112.7z"/>
</svg>
